<?xml version="1.0" encoding="UTF-8"?>
<svg id="Layer_1" data-name="Layer 1" xmlns="http://www.w3.org/2000/svg" xmlns:xlink="http://www.w3.org/1999/xlink" viewBox="0 0 2553.51 1122.17">
  <defs>
    <style>
      .cls-1 {
        fill: url(#linear-gradient-2);
      }

      .cls-2 {
        fill: url(#linear-gradient-14);
      }

      .cls-3 {
        fill: url(#linear-gradient-6);
      }

      .cls-4 {
        fill: url(#linear-gradient-11);
      }

      .cls-5 {
        fill: url(#linear-gradient-10);
      }

      .cls-6 {
        fill: url(#linear-gradient-5);
      }

      .cls-7 {
        fill: url(#linear-gradient-7);
      }

      .cls-8 {
        fill: url(#linear-gradient-9);
      }

      .cls-9 {
        fill: url(#linear-gradient-3);
      }

      .cls-10 {
        fill: url(#linear-gradient);
      }

      .cls-11 {
        fill: url(#linear-gradient-4);
      }

      .cls-12 {
        fill: url(#linear-gradient-8);
      }

      .cls-13 {
        fill: url(#linear-gradient-12);
      }

      .cls-14 {
        fill: url(#linear-gradient-13);
      }
    </style>
    <linearGradient id="linear-gradient" x1="284.86" y1="768.82" x2="284.86" y2="998.63" gradientUnits="userSpaceOnUse">
      <stop offset="0" stop-color="#b47f44"/>
      <stop offset=".49" stop-color="#e4c586"/>
      <stop offset="1" stop-color="#b88345"/>
    </linearGradient>
    <linearGradient id="linear-gradient-2" x1="543.45" y1="768.82" x2="543.45" y2="998.63" xlink:href="#linear-gradient"/>
    <linearGradient id="linear-gradient-3" x1="793.55" x2="793.55" y2="998.63" xlink:href="#linear-gradient"/>
    <linearGradient id="linear-gradient-4" x1="1061.01" y1="686.3" x2="1061.01" y2="1122.17" xlink:href="#linear-gradient"/>
    <linearGradient id="linear-gradient-5" x1="1331.34" y1="762.01" x2="1331.34" y2="1005.26" xlink:href="#linear-gradient"/>
    <linearGradient id="linear-gradient-6" x1="1555.33" y1="767.95" x2="1555.33" y2="999.49" xlink:href="#linear-gradient"/>
    <linearGradient id="linear-gradient-7" x1="1719.02" y1="767.95" x2="1719.02" y2="999.49" xlink:href="#linear-gradient"/>
    <linearGradient id="linear-gradient-8" x1="1912.65" y1="767.95" x2="1912.65" y2="999.49" xlink:href="#linear-gradient"/>
    <linearGradient id="linear-gradient-9" x1="2106.45" y1="767.95" x2="2106.45" y2="999.49" xlink:href="#linear-gradient"/>
    <linearGradient id="linear-gradient-10" x1="2288.2" y1="762.01" x2="2288.2" y2="1005.26" xlink:href="#linear-gradient"/>
    <linearGradient id="linear-gradient-11" x1="473.18" y1="1054" x2="473.18" y2="1067.04" xlink:href="#linear-gradient"/>
    <linearGradient id="linear-gradient-12" x1="447.57" y1="1102.38" x2="447.57" y2="1119.77" xlink:href="#linear-gradient"/>
    <linearGradient id="linear-gradient-13" x1="1832.48" y1="1054" x2="1832.48" y2="1067.04" xlink:href="#linear-gradient"/>
    <linearGradient id="linear-gradient-14" x1="1845.33" y1="1102.38" x2="1845.33" y2="1119.77" xlink:href="#linear-gradient"/>
  </defs>
  <path class="cls-10" d="m183.42,799.3c5.5-8.53,12.48-14.53,20.96-18.01,8.47-3.48,21.35-5.67,38.64-6.57,8.08-.45,15.66-.67,22.73-.67v171.73c0,11.56-.65,20.09-1.94,25.59-1.29,5.5-3.68,10.05-7.16,13.64-3.14,3.26-6.71,5.61-10.69,7.07-3.99,1.46-9.23,2.36-15.74,2.69v3.87h107.58v-3.87c-6.4-.34-11.59-1.23-15.57-2.69-3.99-1.46-7.55-3.81-10.69-7.07-3.48-3.59-5.87-8.17-7.16-13.72-1.29-5.56-1.94-14.06-1.94-25.51v-171.73c24.92,0,42.59,1.52,53.03,4.55,12.35,3.48,21.74,9.23,28.2,17.26,6.45,8.03,11.2,19.84,14.23,35.44l3.87-.34-3.03-62.12h-227.79l-3.03,62.12,3.87.34c2.69-13.47,6.57-24.13,11.62-31.99Z"/>
  <path class="cls-1" d="m519.13,994.76c-6.51-.34-11.76-1.26-15.74-2.78-3.99-1.51-7.49-3.84-10.52-6.99-3.48-3.59-5.87-8.17-7.16-13.72-1.29-5.56-1.94-14.06-1.94-25.51v-62.12h119.53v62.12c0,11.56-.65,20.09-1.94,25.59-1.29,5.5-3.68,10.05-7.16,13.64-3.14,3.14-6.71,5.47-10.69,6.99-3.99,1.52-9.23,2.44-15.74,2.78v3.87h107.58v-3.87c-6.4-.34-11.59-1.26-15.57-2.78-3.99-1.51-7.55-3.84-10.69-6.99-3.48-3.7-5.87-8.3-7.16-13.81-1.29-5.5-1.94-13.97-1.94-25.42v-124.08c0-11.45.64-19.95,1.94-25.51,1.29-5.56,3.67-10.13,7.16-13.72,3.14-3.25,6.71-5.61,10.69-7.07,3.98-1.46,9.18-2.36,15.57-2.69v-3.87h-107.58v3.87c6.51.34,11.76,1.24,15.74,2.69,3.98,1.46,7.55,3.82,10.69,7.07,3.48,3.59,5.86,8.14,7.16,13.64,1.29,5.5,1.94,14.03,1.94,25.59v54.04h-119.53v-54.04c0-11.45.64-19.95,1.94-25.51,1.29-5.56,3.67-10.13,7.16-13.72,3.14-3.25,6.71-5.61,10.69-7.07,3.98-1.46,9.18-2.36,15.57-2.69v-3.87h-107.58v3.87c6.4.34,11.62,1.24,15.66,2.69,4.04,1.46,7.58,3.82,10.61,7.07,3.59,3.59,6,8.14,7.24,13.64,1.23,5.5,1.85,14.03,1.85,25.59v124.08c0,11.56-.62,20.09-1.85,25.59-1.24,5.5-3.65,10.05-7.24,13.64-3.03,3.14-6.54,5.47-10.52,6.99-3.99,1.52-9.23,2.44-15.74,2.78v3.87h107.58v-3.87Z"/>
  <path class="cls-9" d="m895.07,931.62l-3.87-.17c-2.13,10.1-4.46,18.24-6.99,24.41-2.53,6.17-5.81,11.67-9.85,16.5-5.72,7.18-13.13,12.49-22.22,15.91-9.09,3.43-20.37,5.14-33.84,5.14s-23.09-1.88-30.89-5.64c-7.8-3.76-13.61-9.68-17.43-17.76-2.25-4.71-3.76-10.58-4.55-17.59-.79-7.01-1.18-18.21-1.18-33.59v-38.55h9.6c8.31,0,15.15.84,20.54,2.53,5.39,1.68,9.76,4.32,13.13,7.91,3.48,3.7,6.2,8.19,8.17,13.47,1.96,5.28,3.45,12.23,4.46,20.88h3.87l.67-90.24-3.87-.17c-1.01,8.64-2.27,15.18-3.79,19.61-1.52,4.44-3.85,8.28-6.99,11.53-3.26,3.48-7.47,5.89-12.63,7.24-5.16,1.35-12.85,2.02-23.06,2.02h-10.1v-101.01h38.55c11.9,0,21.44.82,28.62,2.44,7.18,1.63,13.41,4.41,18.69,8.33,6.4,4.71,11.28,10.16,14.65,16.33,3.37,6.17,5.78,13.97,7.24,23.4l3.87-.17-2.86-55.56h-180.98v3.87c6.51.34,11.76,1.24,15.74,2.69,3.98,1.46,7.49,3.82,10.52,7.07,3.48,3.59,5.86,8.17,7.16,13.72,1.29,5.56,1.94,14.06,1.94,25.51v124.08c0,11.45-.65,19.95-1.94,25.51-1.29,5.56-3.68,10.13-7.16,13.72-3.14,3.26-6.71,5.61-10.69,7.07-3.99,1.46-9.18,2.36-15.57,2.69v3.87h200.85l2.19-67.01Z"/>
  <path class="cls-11" d="m1194.15,994.81c0-27.99-8.3-52.54-24.89-73.63-14.57-18.86-38.35-36.1-71.33-51.73l-42.79-20.69c-43.5-20.69-65.26-47.97-65.26-81.85,0-8.52,1.57-17.04,4.7-25.56,3.13-8.52,7.44-15.92,12.9-22.21,13.15-15.42,31.05-23.12,53.71-23.12,15.57,0,29.33,3.8,41.26,11.4,11.94,7.6,22.86,19.3,32.77,35.11,5.46,8.72,10.16,18.19,14.11,28.42,3.94,10.23,8.65,24.98,14.11,44.23h6.99l-2.13-120.67h-6.99c-2.43,10.33-7.2,15.5-14.29,15.5-2.84,0-6.08-.56-9.73-1.67-3.65-1.11-10.54-3.69-20.67-7.75-13.58-5.67-24.42-9.47-32.52-11.4-8.11-1.92-16.92-2.89-26.44-2.89-29.38,0-54.82,9.93-76.29,29.79-12.16,11.15-21.63,24.52-28.42,40.12-6.79,15.61-10.18,31.82-10.18,48.63,0,27.36,8.71,50.56,26.14,69.61,6.28,6.89,14.54,13.68,24.77,20.37,10.23,6.69,24.97,14.89,44.23,24.62,21.88,11.15,38.15,20.37,48.79,27.66,10.64,7.3,18.89,14.89,24.77,22.8,5.67,7.7,10.18,16.92,13.53,27.66,3.34,10.74,5.02,21.28,5.02,31.61,0,23.91-7.6,43.67-22.8,59.27-15.2,15.61-34.45,23.41-57.75,23.41-33.44,0-61.2-16.98-83.28-50.94-11.75-18.39-21.89-43.56-30.4-75.51l-6.99-.3-.91,125.54h6.99c3.65-9.73,10.33-14.59,20.06-14.59,3.04,0,5.78.41,8.21,1.22,2.43.81,9.93,3.95,22.49,9.42,24.11,10.33,49.24,15.5,75.38,15.5,28.57,0,53.39-6.42,74.47-19.25,21.07-12.84,36.88-31.08,47.42-54.74,7.49-16.98,11.25-34.77,11.25-53.37Z"/>
  <path class="cls-6" d="m1300.81,998.3c14.25,4.64,29.18,6.96,44.78,6.96,16.73,0,31.47-2.66,44.19-7.97s22.7-13,29.94-23.07c7.57-10.52,12.44-24.71,14.59-42.58l-3.9-.68c-2.94,15.94-7.69,28.61-14.25,38-5.66,8.14-13.63,14.45-23.92,18.91-10.29,4.47-21.88,6.7-34.77,6.7-25.78,0-46.48-8.93-62.08-26.8-8.48-9.61-14.93-21.54-19.34-35.79-4.41-14.25-6.62-30.25-6.62-48,0-20.92,3.22-39.58,9.67-55.98,4.52-11.65,10.35-22.02,17.47-31.13,7.12-9.1,14.81-16.09,23.07-20.95,9.38-5.54,20.47-8.31,33.25-8.31,8.48,0,16.11,1.36,22.9,4.07s13.34,7.07,19.68,13.06c8.37,7.92,14.76,16.62,19.17,26.12,2.49,5.32,5.71,13.4,9.67,24.26.68,1.7,1.64,4.19,2.88,7.46h3.9l-2.04-75.82h-4.07c-1.13,2.6-2.09,4.47-2.88,5.6-1.81,2.37-4.13,3.56-6.95,3.56-2.04,0-4.41-.51-7.12-1.53l-13.91-4.58c-15.27-5.2-29.74-7.8-43.42-7.8-14.36,0-28.7,2.4-43,7.21-14.31,4.81-26.6,11.28-36.89,19.42-13.34,10.63-23.75,24.68-31.21,42.15-7.46,17.47-11.2,36.55-11.2,57.25,0,27.03,6.39,50.29,19.17,69.8,12.78,19.51,30.53,32.99,53.26,40.46Z"/>
  <path class="cls-3" d="m1657.7,929.94l-4.07-.34c-2.15,10.52-4.5,19-7.04,25.44-2.54,6.45-5.8,12.21-9.75,17.3-5.88,7.46-13.43,12.98-22.64,16.54-9.22,3.56-20.55,5.34-34.01,5.34s-23.24-1.89-31.04-5.68c-7.8-3.79-13.68-9.75-17.64-17.9-2.26-4.64-3.79-10.63-4.58-17.98-.79-7.35-1.19-18.54-1.19-33.59v-97.87c0-11.87.68-20.64,2.04-26.29,1.36-5.65,3.96-10.35,7.8-14.08,3.05-2.94,6.56-5.09,10.52-6.45,3.96-1.36,9.04-2.21,15.27-2.54v-3.9h-108.39v3.9c6.11.23,11.11,1.02,15.01,2.38s7.43,3.51,10.6,6.45c3.84,3.62,6.47,8.29,7.89,13.99,1.41,5.71,2.12,14.56,2.12,26.55v125.01c0,11.54-.65,20.1-1.95,25.7-1.3,5.6-3.71,10.21-7.21,13.83-6.22,6.45-15.04,9.67-26.46,9.67v4.07h202.53l2.21-69.55Z"/>
  <path class="cls-7" d="m1773.22,995.59c-7.69-.45-13.85-1.78-18.49-3.99-4.64-2.21-8.43-5.57-11.36-10.09-2.04-3.28-3.51-7.63-4.41-13.06-.91-5.43-1.36-12.83-1.36-22.22v-125.01c0-7.8.34-14.7,1.02-20.69,1.02-8.03,3.73-14.3,8.14-18.83,3.16-3.28,6.76-5.65,10.77-7.12,4.01-1.47,9.25-2.38,15.69-2.71v-3.9h-108.39v3.9c6.45.34,11.7,1.25,15.78,2.71,4.07,1.47,7.63,3.85,10.69,7.12,3.62,3.62,6.05,8.2,7.29,13.74,1.24,5.54,1.87,14.14,1.87,25.78v125.01c0,11.65-.62,20.24-1.87,25.78-1.25,5.54-3.68,10.12-7.29,13.74-3.05,3.17-6.59,5.51-10.6,7.04-4.02,1.53-9.3,2.46-15.86,2.8v3.9h108.39v-3.9Z"/>
  <path class="cls-12" d="m1868.04,995.59c-6.45-.34-11.68-1.24-15.69-2.71-4.01-1.47-7.61-3.84-10.77-7.12-3.51-3.62-5.91-8.2-7.21-13.74-1.3-5.54-1.95-14.13-1.95-25.78v-147.57l159.79,200.84h7.63v-178.45c0-11.42.65-19.93,1.95-25.53,1.3-5.6,3.7-10.2,7.21-13.82,6.33-6.56,15.15-9.84,26.46-9.84v-3.9h-78.2v3.9c6.45.34,11.67,1.25,15.69,2.71,4.01,1.47,7.6,3.85,10.77,7.12,3.5,3.62,5.91,8.2,7.21,13.74,1.3,5.54,1.95,14.14,1.95,25.78v122.47l-137.74-175.73h-65.31v3.9c6.56.34,11.84,1.25,15.86,2.71,4.01,1.47,7.55,3.85,10.6,7.12,3.5,3.62,5.91,8.23,7.21,13.82,1.3,5.6,1.95,14.11,1.95,25.53v125.18c0,11.54-.65,20.1-1.95,25.7-1.3,5.6-3.71,10.21-7.21,13.83-3.17,3.28-6.76,5.66-10.77,7.12-4.02,1.47-9.24,2.38-15.69,2.71v3.9h78.2v-3.9Z"/>
  <path class="cls-8" d="m2160.64,995.59c-7.69-.45-13.85-1.78-18.49-3.99-4.64-2.21-8.43-5.57-11.36-10.09-2.04-3.28-3.51-7.63-4.41-13.06-.91-5.43-1.36-12.83-1.36-22.22v-125.01c0-7.8.34-14.7,1.02-20.69,1.02-8.03,3.73-14.3,8.14-18.83,3.16-3.28,6.76-5.65,10.77-7.12,4.01-1.47,9.25-2.38,15.69-2.71v-3.9h-108.39v3.9c6.45.34,11.7,1.25,15.78,2.71,4.07,1.47,7.63,3.85,10.69,7.12,3.62,3.62,6.05,8.2,7.29,13.74,1.24,5.54,1.87,14.14,1.87,25.78v125.01c0,11.65-.62,20.24-1.87,25.78-1.25,5.54-3.68,10.12-7.29,13.74-3.05,3.17-6.59,5.51-10.6,7.04-4.02,1.53-9.3,2.46-15.86,2.8v3.9h108.39v-3.9Z"/>
  <path class="cls-5" d="m2257.67,998.3c14.25,4.64,29.18,6.96,44.78,6.96,16.73,0,31.47-2.66,44.19-7.97s22.7-13,29.94-23.07c7.57-10.52,12.44-24.71,14.59-42.58l-3.9-.68c-2.94,15.94-7.69,28.61-14.25,38-5.66,8.14-13.63,14.45-23.92,18.91-10.29,4.47-21.88,6.7-34.77,6.7-25.78,0-46.48-8.93-62.08-26.8-8.48-9.61-14.93-21.54-19.34-35.79-4.41-14.25-6.62-30.25-6.62-48,0-20.92,3.22-39.58,9.67-55.98,4.52-11.65,10.35-22.02,17.47-31.13,7.12-9.1,14.81-16.09,23.07-20.95,9.38-5.54,20.47-8.31,33.25-8.31,8.48,0,16.11,1.36,22.9,4.07s13.34,7.07,19.68,13.06c8.37,7.92,14.76,16.62,19.17,26.12,2.49,5.32,5.71,13.4,9.67,24.26.68,1.7,1.64,4.19,2.88,7.46h3.9l-2.04-75.82h-4.07c-1.13,2.6-2.09,4.47-2.88,5.6-1.81,2.37-4.13,3.56-6.95,3.56-2.04,0-4.41-.51-7.12-1.53l-13.91-4.58c-15.27-5.2-29.74-7.8-43.42-7.8-14.36,0-28.7,2.4-43,7.21-14.31,4.81-26.6,11.28-36.89,19.42-13.34,10.63-23.75,24.68-31.21,42.15-7.46,17.47-11.2,36.55-11.2,57.25,0,27.03,6.39,50.29,19.17,69.8,12.78,19.51,30.53,32.99,53.26,40.46Z"/>
  <polygon class="cls-4" points="51.21 1067.04 895.14 1067.04 895.14 1054 60.66 1054 51.21 1067.04"/>
  <polygon class="cls-13" points="0 1119.77 895.14 1119.77 895.14 1102.38 18.24 1102.38 0 1119.77"/>
  <polygon class="cls-14" points="2448.52 1054 1206.99 1054 1206.99 1067.04 2457.97 1067.04 2448.52 1054"/>
  <polygon class="cls-2" points="2490.95 1102.38 1181.48 1102.38 1181.48 1119.77 2509.18 1119.77 2490.95 1102.38"/>
</svg>