<svg id="Capa_1" enable-background="new 0 0 583.726 583.726" height="512" viewBox="0 0 583.726 583.726" width="512" xmlns="http://www.w3.org/2000/svg"><g><g><path d="m581.074 574.906c-1.01-.477-101.021-48.185-130.906-96.953-29.459-48.064-52.512-228.448-53.67-237.635.125-32.095 31.197-65.289 67.174-103.708 35.273-37.673 75.258-80.373 91.681-130.527.797-2.432-.528-5.05-2.96-5.846-2.455-.811-5.054.533-5.846 2.96-15.784 48.208-55.023 90.111-89.643 127.08-25.554 27.291-48.713 52.035-60.823 76.403 1.205-89.569 22.64-154.862 65.275-198.813 1.784-1.835 1.737-4.767-.097-6.551-1.835-1.784-4.767-1.742-6.551.097-45.025 46.41-67.295 115.146-67.911 209.352-19.944-74.072-9.409-164.628 26.541-202.959 1.751-1.862 1.654-4.795-.213-6.546-1.862-1.751-4.795-1.654-6.546.213-42.158 44.951-51.534 157.118-20.347 237.343-5.796 4.299-18.563 14.927-29.51 31.748-5.976-18.911-18.244-65.928-18.244-133.176 0-87.947 20.24-130.281 20.444-130.698 1.121-2.293.176-5.073-2.113-6.199-2.298-1.135-5.073-.185-6.199 2.103-.871 1.77-21.398 44.395-21.398 134.793 0 81.587 17.345 133.126 21.334 143.892-4.591 8.978-8.371 19.277-10.465 30.923-7.366-9.363-15.825-17.234-25.151-23.154v-52.298c0-2.562-2.071-4.633-4.633-4.633h-74.026v-115.053c0-2.562-2.071-4.633-4.633-4.633h-227.002c-2.562 0-4.633 2.071-4.633 4.633s2.071 4.633 4.633 4.633h222.37v110.421h-9.145c-2.562 0-4.633 2.071-4.633 4.633v52.294c-4.461 2.835-8.719 6.115-12.763 9.794v-17.984c0-2.562-2.071-4.633-4.633-4.633s-4.633 2.071-4.633 4.633v27.477c-21.107 24.609-34.152 60.902-34.152 98.755v14.389h-152.411c-2.562 0-4.633 2.071-4.633 4.633s2.071 4.633 4.633 4.633h152.411v118.449c0 19.04 15.496 34.537 34.537 34.537h144.985c19.04 0 34.537-15.496 34.537-34.537v-136.03c20.449 18.559 43.904 22.066 52.697 22.7 5.708 19.596 11.897 36.228 18.461 46.934 31.317 51.094 130.628 98.496 134.84 100.488.644.301 1.316.445 1.978.445 1.737 0 3.4-.977 4.193-2.65 1.098-2.313.111-5.079-2.201-6.172zm-358.581-306.13h83.166v18.132h-83.166zm83.171-27.393v18.128h-83.171v-18.128zm56.177 307.806c0 13.935-11.336 25.271-25.271 25.271h-144.986c-13.935 0-25.271-11.336-25.271-25.271v-142.108c0-46.41 21.718-91.769 52.919-110.907h89.689c31.201 19.138 52.919 64.497 52.919 110.907zm9.056-149.46c-1.251-28.088-9.59-54.916-22.95-76.315 3.271-39.17 28.514-64.529 40.337-74.355 3.526 26.805 15.733 114.085 32.846 177.271-10.646-1.367-32.98-6.768-50.233-26.601z"/><path d="m497.635 174.19c.602 0 1.209-.116 1.797-.361 2.516-1.061 5.091-1.936 7.649-2.613 2.474-.658 3.952-3.187 3.294-5.666s-3.187-3.942-5.666-3.294c-2.979.788-5.962 1.811-8.872 3.03-2.358.991-3.465 3.711-2.474 6.069.746 1.77 2.465 2.835 4.272 2.835z"/><path d="m479.493 187.342c.028-.032 2.701-2.993 7.482-6.463 2.066-1.506 2.529-4.401 1.028-6.472-1.506-2.071-4.396-2.534-6.472-1.028-5.657 4.109-8.825 7.649-8.96 7.801-1.696 1.909-1.52 4.827.385 6.527.88.788 1.983 1.177 3.081 1.177 1.269.001 2.543-.527 3.456-1.542z"/><path d="m525.194 171.211c2.571.676 5.138 1.557 7.644 2.613.588.246 1.2.361 1.802.361 1.807 0 3.526-1.061 4.271-2.831.991-2.363-.111-5.077-2.469-6.073-2.909-1.223-5.893-2.242-8.876-3.03-2.46-.644-5.013.82-5.666 3.294s.825 5.018 3.294 5.666z"/><path d="m544.272 174.408c-1.501 2.071-1.042 4.966 1.029 6.472 4.786 3.47 7.463 6.435 7.486 6.463.917 1.028 2.187 1.547 3.456 1.547 1.093 0 2.196-.385 3.076-1.172 1.913-1.7 2.085-4.628.385-6.537-.13-.148-3.303-3.692-8.96-7.801-2.076-1.506-4.966-1.048-6.472 1.028z"/><path d="m466.869 281.4c.468 2.173 2.39 3.655 4.526 3.655.32 0 .653-.032.982-.102l21.913-4.725c2.627 13.444 14.482 23.622 28.681 23.622 16.122 0 29.242-13.115 29.242-29.242 0-16.126-13.115-29.242-29.242-29.242-9.604 0-18.119 4.679-23.451 11.85l-18.526-11.188c-2.191-1.325-5.036-.621-6.361 1.575-1.32 2.191-.616 5.036 1.575 6.361l19.017 11.484c-.57 1.719-.973 3.512-1.214 5.355l-23.59 5.087c-2.501.544-4.09 3.009-3.552 5.51zm56.102-26.763c11.012 0 19.976 8.964 19.976 19.976s-8.964 19.976-19.976 19.976-19.972-8.964-19.972-19.976 8.96-19.976 19.972-19.976z"/><path d="m255.668 319.152c-43.904 0-79.622 35.718-79.622 79.618v126.959c0 20.518 16.692 37.205 37.205 37.205h101.651c20.518 0 37.205-16.692 37.205-37.205v-126.959c0-43.904-35.718-79.622-79.622-79.622h-16.817zm87.178 79.618v126.959c0 15.404-12.536 27.94-27.94 27.94h-101.655c-15.404 0-27.94-12.536-27.94-27.94v-126.959c0-38.794 31.563-70.357 70.357-70.357h16.826c38.79.005 70.352 31.563 70.352 70.357z"/><path d="m216.448 386.915v122.906c0 14.588 11.869 26.457 26.457 26.457h42.352c14.588 0 26.457-11.869 26.457-26.457v-122.906c0-14.588-11.869-26.462-26.457-26.462h-42.352c-14.593 0-26.457 11.869-26.457 26.462zm85.997 0v122.906c0 9.479-7.713 17.192-17.192 17.192h-42.353c-9.479 0-17.192-7.713-17.192-17.192v-122.906c0-9.483 7.713-17.197 17.192-17.197h42.352c9.479 0 17.193 7.714 17.193 17.197z"/><path d="m264.081 439.95c14.621 0 26.518-11.897 26.518-26.522s-11.892-26.518-26.518-26.518-26.522 11.892-26.522 26.518 11.901 26.522 26.522 26.522zm0-43.77c9.511 0 17.252 7.741 17.252 17.252 0 9.516-7.741 17.257-17.252 17.257-9.516 0-17.257-7.741-17.257-17.257 0-9.51 7.742-17.252 17.257-17.252z"/><path d="m239.069 460.543c-2.604-.25-4.809 1.635-5.05 4.179-.236 2.548 1.635 4.809 4.179 5.05 2.636.246 5.226.371 7.755.371 19.805 0 36.399-7.561 49.403-22.534 1.677-1.927 1.469-4.855-.463-6.532-1.918-1.668-4.855-1.482-6.532.463-12.768 14.708-28.903 20.939-49.292 19.003z"/><path d="m288.458 474.107c-10.146 11.003-23.914 16.349-42.088 16.349-.074 0-.144 0-.218 0 0 0-.005 0-.009 0-2.553 0-4.628 2.066-4.633 4.623-.005 2.631 2.247 4.684 4.85 4.642 20.62 0 37.076-6.504 48.912-19.337 1.733-1.876 1.617-4.809-.269-6.546-1.879-1.723-4.807-1.616-6.545.269z"/><path d="m191.199 262.318c0 2.562 2.071 4.633 4.633 4.633s4.633-2.071 4.633-4.633v-35.38c0-2.562-2.071-4.633-4.633-4.633s-4.633 2.071-4.633 4.633z"/><path d="m191.199 208.708c0 2.562 2.071 4.633 4.633 4.633s4.633-2.071 4.633-4.633v-23.747c0-2.562-2.071-4.633-4.633-4.633s-4.633 2.071-4.633 4.633z"/><path d="m195.832 171.151c2.562 0 4.633-2.071 4.633-4.633v-25.151c0-2.562-2.071-4.633-4.633-4.633s-4.633 2.071-4.633 4.633v25.151c0 2.558 2.076 4.633 4.633 4.633z"/><path d="m180.678 146c2.562 0 4.633-2.071 4.633-4.633s-2.071-4.633-4.633-4.633h-22.992c-2.562 0-4.633 2.071-4.633 4.633s2.071 4.633 4.633 4.633z"/><path d="m135.153 146c2.562 0 4.633-2.071 4.633-4.633s-2.071-4.633-4.633-4.633h-27.138c-2.562 0-4.633 2.071-4.633 4.633s2.071 4.633 4.633 4.633z"/><path d="m87.237 146c2.562 0 4.633-2.071 4.633-4.633s-2.071-4.633-4.633-4.633h-23.748c-2.562 0-4.633 2.071-4.633 4.633s2.072 4.633 4.633 4.633z"/><path d="m47.173 136.735h-23.117c-2.562 0-4.633 2.071-4.633 4.633s2.071 4.632 4.633 4.632h23.117c2.562 0 4.633-2.071 4.633-4.633s-2.076-4.632-4.633-4.632z"/><path d="m108.01 397.172c-2.562 0-4.633 2.071-4.633 4.633s2.071 4.633 4.633 4.633h36.408c2.562 0 4.633-2.071 4.633-4.633s-2.071-4.633-4.633-4.633z"/><path d="m63.489 397.172c-2.562 0-4.633 2.071-4.633 4.633s2.071 4.633 4.633 4.633h28.38c2.562 0 4.633-2.071 4.633-4.633s-2.071-4.633-4.633-4.633z"/><path d="m24.051 397.172c-2.562 0-4.633 2.071-4.633 4.633s2.071 4.633 4.633 4.633h23.117c2.562 0 4.633-2.071 4.633-4.633s-2.071-4.633-4.633-4.633z"/><path d="m23.356 207.773c-1.028 1.742-.806 3.947.542 5.453.899 1.001 2.163 1.533 3.447 1.533.649 0 1.297-.134 1.913-.412 35.602-16.136 76.657-18.739 121.984-7.732 1.343.324 2.766.042 3.868-.792 1.107-.829 1.788-2.108 1.853-3.488l.435-9.048c.477-9.807-5.846-18.596-15.362-21.361-49.824-14.511-97.517-.103-118.68 35.847zm80.753-32.17c11.35 0 23.27 1.7 35.343 5.212 5.388 1.57 8.964 6.514 8.696 12.027l-.167 3.502c-38.873-8.589-74.753-7.44-106.969 3.424 15.125-15.659 37.687-24.165 63.097-24.165z"/><path d="m7.902 276.439c-.82 2.029-.097 4.359 1.723 5.578l22.858 15.283c2.349 1.57 4.522 3.59 6.453 6.013 1.052 1.32 2.432 2.914 4.077 4.642l-9.886 7.181c-2.066 1.501-2.529 4.396-1.024 6.467.903 1.251 2.316 1.909 3.752 1.909.945 0 1.895-.292 2.719-.885l11.332-8.232c2.502 2.071 5.402 4.174 8.621 6.199l-16.289 19.249c-1.649 1.95-1.408 4.874.547 6.527.871.732 1.932 1.093 2.988 1.093 1.316 0 2.622-.556 3.544-1.64l17.502-20.68c3.711 1.77 7.751 3.377 12.184 4.688l-8.121 12.569c-1.39 2.15-.774 5.017 1.376 6.407.778.5 1.649.741 2.511.741 1.52 0 3.007-.746 3.896-2.117l9.951-15.399c4.989.871 10.317 1.408 16.08 1.408 35.389 0 55.403-18.679 64.182-29.821 2.78-3.525 3.702-8.015 2.543-12.318-1.149-4.257-4.16-7.625-8.269-9.252-4.966-1.969-10.451-.982-14.348 2.557-6.166 5.606-22.821 18.642-44.108 18.642-21.612 0-39.948-12.819-46.827-18.327-3.53-2.826-7.686-4.73-12.031-5.499l-32.827-5.814c-2.135-.394-4.289.797-5.109 2.831zm36.306 12.105c2.817.5 5.536 1.747 7.857 3.604 9.492 7.607 28.954 20.365 52.618 20.365 23.641 0 41.69-13.189 50.344-21.051 1.255-1.144 3.062-1.455 4.702-.801 1.862.737 2.511 2.224 2.733 3.053.394 1.45.079 2.97-.871 4.165-9.455 11.994-27.004 26.291-56.908 26.291-33.624 0-52.123-18.628-58.516-26.643-2.525-3.164-5.397-5.828-8.538-7.927l-4.517-3.016z"/></g></g></svg>