<svg id="Layer_1" enable-background="new 0 0 450 450" height="450" viewBox="0 0 450 450" width="450" xmlns="http://www.w3.org/2000/svg"><g fill="#333"><path d="m325.354 237.577c2.792-3.019 2.608-7.729-.41-10.521-3.021-2.791-7.729-2.606-10.521.411-8.109 8.771-16.354 13.074-24.521 12.777-12.898-.462-22.426-12.099-22.625-12.347-2.546-3.21-7.211-3.766-10.436-1.228-3.232 2.542-3.793 7.222-1.251 10.453.552.702 13.745 17.199 33.622 17.994.508.02 1.013.03 1.519.03 12.195.002 23.835-5.904 34.623-17.569z"/><path d="m160.626 255.118c.507.02 1.013.03 1.519.03 12.193 0 23.835-5.906 34.623-17.571 2.791-3.019 2.607-7.729-.412-10.521-3.02-2.791-7.729-2.606-10.52.411-8.108 8.771-16.344 13.074-24.52 12.777-12.898-.462-22.427-12.099-22.626-12.347-2.545-3.21-7.211-3.766-10.437-1.228-3.231 2.542-3.792 7.222-1.25 10.453.552.704 13.747 17.201 33.623 17.996z"/><path d="m272.356 325.681c-4.533-1.403-9.349 1.15-10.743 5.69-.045.153-5.508 15.385-33.197 15.385-27.199 0-33.02-14.656-33.348-15.557-1.47-4.447-6.244-6.91-10.725-5.501-4.535 1.406-7.062 6.231-5.648 10.763.352 1.119 9.051 27.486 49.718 27.486 40.694 0 49.285-26.396 49.632-27.523 1.395-4.534-1.149-9.348-5.689-10.743z"/><path d="m224.5 369.5h11v12h-11z"/><path d="m224.5 394.5h11v12h-11z"/><path d="m237.328 262.727c1.695 4.159 3.677 8.3 5.891 12.308l9.629-5.318c-2.006-3.631-3.8-7.379-5.332-11.14z"/><path d="m267.141 289.919c-2.755-3.123-5.347-6.395-7.706-9.724l-8.975 6.361c2.583 3.644 5.419 7.223 8.429 10.638z"/><path d="m243.601 246.92c-1.873-7.097-2.104-11.617-2.105-11.662l-10.99.468c.009.227.253 5.641 2.461 14.003z"/><path d="m268.34 306.884c3.244 3.014 6.711 5.945 10.305 8.713l6.711-8.715c-3.326-2.562-6.532-5.272-9.529-8.057z"/><path d="m289.64 323.34c3.686 2.371 7.57 4.663 11.548 6.811l5.227-9.68c-3.731-2.015-7.372-4.161-10.821-6.381z"/><path d="m313.164 336.082c3.96 1.796 8.101 3.518 12.308 5.116l3.908-10.281c-3.993-1.519-7.921-3.151-11.673-4.853z"/><path d="m190.229 289.92 8.252 7.273c3.01-3.415 5.846-6.994 8.428-10.637l-8.975-6.361c-2.359 3.328-4.952 6.6-7.705 9.725z"/><path d="m220.039 262.727-10.188-4.15c-1.531 3.76-3.324 7.508-5.331 11.139l9.628 5.32c2.215-4.01 4.198-8.151 5.891-12.309z"/><path d="m226.863 235.726-10.99-.468c-.002.045-.232 4.565-2.105 11.662l10.635 2.809c2.207-8.363 2.451-13.777 2.46-14.003z"/><path d="m189.029 306.884-7.488-8.059c-2.992 2.781-6.199 5.492-9.529 8.058l6.715 8.713c3.595-2.771 7.062-5.701 10.302-8.712z"/><path d="m127.988 330.916 3.908 10.283c4.205-1.599 8.346-3.32 12.308-5.117l-4.544-10.018c-3.754 1.703-7.681 3.335-11.672 4.852z"/><path d="m150.955 320.471 5.227 9.68c3.979-2.148 7.863-4.439 11.547-6.811l-5.953-9.25c-3.449 2.22-7.089 4.366-10.821 6.381z"/><path d="m305.736 188.249c3.776.783 7.56 2.004 11.243 3.628l4.438-10.064c-4.39-1.936-8.914-3.394-13.446-4.335z"/><path d="m270.933 192.44-4.367-10.096c-4.099 1.773-8.211 3.941-12.223 6.442l5.82 9.334c3.549-2.212 7.172-4.123 10.77-5.68z"/><path d="m282.317 188.649c3.925-.913 7.871-1.414 11.728-1.487l-.209-10.998c-4.625.088-9.34.685-14.013 1.772z"/><path d="m250.179 205.298-6.973-8.508c-6.337 5.193-10.004 9.389-10.157 9.565l8.298 7.221c.032-.036 3.269-3.72 8.832-8.278z"/><path d="m345.724 214.091c2.64 2.987 5.279 6.265 7.847 9.742l8.85-6.535c-2.758-3.734-5.603-7.264-8.454-10.49z"/><path d="m327.464 197.711c3.223 2.174 6.446 4.716 9.581 7.555l7.385-8.152c-3.521-3.189-7.159-6.057-10.813-8.521z"/><path d="m126.345 188.59c-3.649 2.463-7.288 5.329-10.812 8.52l7.381 8.154c3.14-2.841 6.363-5.383 9.583-7.555z"/><path d="m97.541 217.297 8.849 6.535c2.569-3.479 5.21-6.756 7.849-9.742l-8.244-7.283c-2.85 3.225-5.694 6.755-8.454 10.49z"/><path d="m154.227 188.249-2.236-10.771c-4.531.941-9.055 2.399-13.445 4.335l4.438 10.064c3.682-1.624 7.465-2.845 11.243-3.628z"/><path d="m218.613 213.576 4.146-3.613 4.151-3.607c-.153-.177-3.82-4.372-10.157-9.565l-6.973 8.508c5.564 4.557 8.802 8.241 8.833 8.277z"/><path d="m205.617 188.788c-4.012-2.501-8.123-4.669-12.222-6.442l-4.368 10.096c3.598 1.557 7.221 3.468 10.77 5.681z"/><path d="m165.918 187.162c3.855.073 7.801.574 11.727 1.487l2.494-10.713c-4.674-1.088-9.388-1.685-14.012-1.772z"/><path d="m383.517 199.051c-.084-4.716 1.847-9.38 1.688-13.985 19.601-122.404-69.636-183.428-158.682-183.428-91.863 0-178.875 61.897-154.24 196.324 1.258 0-.568.337-.646.337-25.991 0-42.965 21.068-42.965 47.056s21.064 47.056 47.056 47.056c2.293 0 4.545-.168 6.749-.486 19.323 85.736 105.539 156.65 147.254 156.65 41.718 0 127.729-70.695 147.152-156.205 25.2-.897 45.351-21.599 45.351-47.015 0-23.142-16.71-42.369-38.717-46.304zm-7.274 75.33c-8.161.29-15.104 6.038-16.912 14.001-4.163 18.329-11.938 36.852-23.108 55.054-10.059 16.39-23.141 32.366-37.357 46.202-24.894 24.225-48.365 37.078-63.365 40.181v-10.319h-11v10.616c-14-2.492-38.645-15.426-64.479-40.606-14.241-13.881-26.962-29.904-37.023-46.338-11.178-18.257-18.883-36.83-23.023-55.205-1.873-8.31-9.221-14.045-17.512-14.045-.854 0-1.704.062-2.573.187-1.386.2-2.783.302-4.169.302-16.021 0-29.052-13.034-29.052-29.056 0-8.476 2.577-16.069 7.251-21.383 4.48-5.091 10.441-7.673 17.717-7.673 10.702 0 19.086-8.03 19.086-18.282 0-2.397-.481-4.703-1.356-6.818-4.516-26.651-4.414-51.045.305-72.561 4.387-20.002 12.773-37.539 24.928-52.123 24.828-29.791 65.623-46.877 111.924-46.877 22.228 0 44.299 4.241 63.826 12.266 20.452 8.404 37.489 20.485 50.639 35.908 11.676 13.694 19.938 29.762 24.555 47.757 5.133 20.001 5.768 42.426 1.889 66.651-.18 1.122-.253 2.259-.218 3.396-.024.545-.306 1.996-.513 3.062-.561 2.885-1.257 6.475-1.182 10.694.153 8.597 6.364 15.885 14.828 17.398 13.841 2.476 23.887 14.497 23.887 28.585-.002 15.717-12.297 28.466-27.993 29.026z"/><path d="m146.284 135.323c1.356 0 2.573-.571 3.522-1.683l6.693-5.351v29.415c0 2.647 1.852 4.795 4.5 4.795 2.647 0 4.5-2.147 4.5-4.795v-30.844l9.223 7.058c1.871 1.874 5.122 1.874 6.992 0 1.874-1.871 2.023-4.908.149-6.779l-20.623-18.912-18.617 19.189c-1.72 2.015-1.472 5.04.543 6.76.904.77 2.018 1.147 3.118 1.147z"/><path d="m278.284 135.323c1.356 0 2.573-.571 3.522-1.683l6.693-5.351v29.415c0 2.647 1.852 4.795 4.5 4.795 2.647 0 4.5-2.147 4.5-4.795v-30.844l9.223 7.058c1.871 1.874 5.122 1.874 6.992 0 1.874-1.871 2.023-4.908.149-6.779l-20.623-18.912-18.617 19.189c-1.72 2.015-1.472 5.04.543 6.76.904.77 2.018 1.147 3.118 1.147z"/></g></svg>