<svg id="Layer_1" enable-background="new 0 0 75 75" viewBox="0 0 75 75" xmlns="http://www.w3.org/2000/svg"><g id="Gluteoplasty"><path d="m48.8998146 55.9409485c-.3632813.0009766-.7553711.3222656-.7631836.7363281-.0639648 3.6337891-.3823242 7.4384766-1.0634766 12.7246094-.0532227.4101563.2368164.7861328.6479492.8398438.4232521.0513.7880554-.2463303.8393555-.6484375.6889648-5.3427734 1.0107422-9.1982422 1.0761719-12.8886719.0073242-.4150391-.3227539-.7558594-.7368164-.7636719z"/><path d="m24.3509846 55.8930969-.3183594 13.2207031c-.0097656.4140625.3178711.7578125.7319336.7675781h.0185547c.4057617 0 .7392578-.3242188.7495117-.7324219l.3183594-13.2207031c.0097656-.4140625-.3178711-.7578125-.7319336-.7675781-.409668.0087891-.7578125.3183594-.7680664.7324219z"/><path d="m28.5067463 55.3042297-.4267578 13.8037109c-.0126953.4140625.3125.7607422.7265625.7734375h.0234375c.4033203 0 .7368164-.3203125.7490234-.7265625l.4267578-13.8037109c.0126953-.4140625-.3125-.7607422-.7265625-.7734375-.415039.0244141-.7597656.3125-.7724609.7265625z"/><path d="m37.3465919 52.2905579c.3554688.0419922.7197266.0644531 1.0908203.0644531.4140625 0 .75-.3359375.75-.75s-.3359375-.75-.75-.75c-.3105469 0-.6152344-.0185547-.9121094-.0546875-.4052734-.0400391-.784668.2451172-.8339844.65625s.2441407.7841797.6552735.8339844z"/><path d="m31.5277424 45.526886c-.2585125.8318176-.2744064 1.7439842.0053711 2.6328125.1248055.3974342.5469723.6138458.9404316.4912109.3950195-.125.6147461-.5458984.4902344-.9404297-.1789246-.5709953-.1804237-1.168705-.003418-1.7382813.1230469-.3955078-.0981445-.8154297-.4936523-.9384766-.3964844-.1249999-.8159199.0976564-.9389668.4931642z"/><path d="m33.4271584 44.6479797c.5987358 0 .611805-.6038933 2.1489258-1.2636719.3803711-.1640625.5566406-.6044922.3935547-.9853516s-.6044922-.5556641-.9853516-.3935547c-.800293.34375-1.4985352.7978516-2.0756836 1.3505859-.4915657.4715158-.1488686 1.2919923.5185547 1.2919923z"/><path d="m34.9979591 51.6714172c.0961914.0410156.1962891.0605469.2944336.0605469.8112869 0 1.0439301-1.1189346.2954102-1.4394531-.6357422-.2724609-1.1855469-.6259766-1.6328125-1.0527344-.2998047-.2861328-.7744141-.2734375-1.0605469.0253906-.2856445.2998047-.2744141.7744141.0253906 1.0605469.578125.5507813 1.2773438 1.0029297 2.078125 1.3457031z"/><path d="m38.4374123 42.8159485c.4140625 0 .75-.3359375.75-.75s-.3359375-.75-.75-.75c-.3706055 0-.7338867.0224609-1.0883789.0634766-.4116211.0478516-.7060547.4208984-.6582031.8320313.0449219.3818359.3686523.6630859.7441406.6630859.0005073-.0000001.5354003-.0585938 1.0024414-.0585938z"/><path d="m14.9803801 52.355011c.3710938 0 .7353516-.0224609 1.0908194-.0644531.4111328-.0498047.7045898-.4228516.6552734-.8339844-.0488281-.4111328-.4179688-.6962891-.8339834-.65625-.296875.0361328-.6015625.0546875-.9121094.0546875-.4140625 0-.75.3359375-.75.75s.3359375.75.75.75z"/><path d="m18.1253986 51.7319641c.0981445 0 .1982422-.0195313.2944336-.0605469.8007813-.3427734 1.5-.7949219 2.078125-1.3457031.2998047-.2861328.3110352-.7607422.0253906-1.0605469-.2861328-.2988281-.7602539-.3115234-1.0605469-.0253906-.4472656.4267578-.9970703.7802734-1.6328125 1.0527344-.7482928.3204231-.5162391 1.4394531.2954102 1.4394531z"/><path d="m21.1693439 48.6850891c.3188477 0 .6147461-.2050781.715332-.5253906.2630444-.8356628.2802963-1.7481842.0053711-2.6328125-.1230469-.3955078-.5424805-.6181641-.9389648-.4931641-.3955078.1230469-.6166992.5429688-.4936523.9384766.1777821.5720749.1747913 1.1695709-.003418 1.7382813-.1516208.4804305.2072506.9746093.715332.9746093z"/><path d="m18.4335041 42.0054016c-.3833008-.1630859-.8222656.0126953-.9853516.3935547s.0131836.8212891.3935547.9853516c1.5316792.6574402 1.5480614 1.2636719 2.1489258 1.2636719.6676388 0 1.0098953-.820694.5185547-1.2919922-.5771484-.5527344-1.2753906-1.006836-2.0756836-1.350586z"/><path d="m14.9803801 42.8159485c.3110352 0 .6166992.0185547.9145508.0537109.4383001.0438271.7858591-.2657433.8320303-.6582031.0478516-.4111328-.246582-.7841797-.6582031-.8320313-.3544912-.0410156-.7177725-.0634766-1.088378-.0634766-.4140625 0-.75.3359375-.75.75s.3359375.7500001.75.7500001z"/><path d="m34.183506 63.1948547-.1660156 3.2314453c-.0209961.4130859.296875.765625.7104492.7871094.3886757.0287857.7656288-.2809753.7875977-.7109375l.1660156-3.2314453c.0209961-.4130859-.296875-.765625-.7104492-.7871094-.4204102-.040039-.7666016.296875-.7875977.7109375z"/><path d="m37.6205177 62.4497375c.6793747 0 1.0128822-.8412476.5048828-1.3046875l-2.8212891-2.5693359c-.2895508-.2626953-.734375-.2597656-1.0200195.0097656l-2.720705 2.5693359c-.3007813.2841797-.3144531.7587891-.0302734 1.0595703.284668.3007813.7592793.3164063 1.0605488.0302734l2.2148438-2.0917969 2.3071289 2.1015625c.1435546.1308595.3242187.1953126.5048827.1953126z"/><path d="m17.4105549 63.1245422-.1655273 3.2314453c-.02174.427742.319294.7880859.7495117.7880859.3964844 0 .7280273-.3115234.7485352-.7119141l.1655273-3.2314453c.0209961-.4130859-.296875-.765625-.7104492-.7871094-.4272462-.0371092-.7661133.2978517-.7875977.7109376z"/><path d="m20.8480549 62.379425c.2036133 0 .4067383-.0830078.5546875-.2451172.2788086-.3066406.2563477-.7802734-.0498047-1.0595703l-2.8217773-2.5693359c-.2895508-.2626953-.734375-.2597656-1.0200195.0097656l-2.7202139 2.5693359c-.3007813.2841797-.3144531.7587891-.0302734 1.0595703.2851563.3017578.7597656.3134766 1.0605469.0302734l2.2143545-2.0917969 2.3076172 2.1015625c.1435546.1308595.3242186.1953126.5048827.1953126z"/><path d="m41.4442482 46.6411438c.3574219-.2099609.4770508-.6689453.2675781-1.0263672-.2104492-.3574219-.6708984-.4775391-1.0263672-.2685547-1.5766602.9248047-2.2587891 2.3857422-1.9726563 4.2275391.0625572.401844.4373741.6888351.8564453.6259766.4091797-.0634766.6894531-.4472656.6259766-.8564453-.1914062-1.2324219.2055665-2.0908204 1.2490235-2.7021485z"/><path d="m26.1219807 44.3257141c1.001358 2.4166107.5208549 5.8385735-1.7094727 7.8310547-2.9667969 2.6494141-7.9584961 2.3515625-8.0087891 2.3525391-.4057608-.0234375-.7700186.2851563-.7978506.6982422-.0273438.4130859.284668.7705078.6972647.7978516.0439453.0029297.2773438.0175781.6503906.0175781 4.2223473 0 8.6993828-1.5122948 10.4178467-5.4556885 1.7696781 4.060997 6.7720661 5.7226143 11.0689716 5.4361572.4130859-.0273438.7246094-.3847656.6972656-.7978516s-.3876953-.71875-.7978516-.6982422c-5.3523064.1049461-9.955328-1.9250679-10.2080097-7.3349609-.0458984-.984375.1240234-1.9667969.4912109-2.8408203 1.8449707-4.3922119 6.8010273-6.1975098 16.0008564-5.8349609 1.3734131 2.9213867 2.5603027 5.8280029 3.0718994 9.1533203.0571289.3701172.3764648.6357422.7402344.6357422.4652214 0 .8115005-.4139824.7421875-.8642578-.8654366-5.6274948-3.4886665-9.9682808-5.8339844-15.0761719-5.3642578-11.6904316-.0327148-26.4375019.0219727-26.5849628.1430664-.3886719-.0551758-.8193359-.4438477-.9628906-.3867188-.1464844-.8188477.0546875-.9633789.4433594-.2314453.625-5.6049805 15.4677734.0219727 27.7294941.5777016 1.2594261 1.1199608 2.3615417 1.9119873 3.9954834-6.5007324-.190918-13.8162861.5897217-16.5186787 6.5172119-2.6677246-5.8623047-9.7957764-6.6707764-16.102417-6.526123 1.4790201-3.3703804 2.0147266-3.9340172 2.8619385-6.3417988 8.4583368 1.9161549 14.9704275 1.6706448 23.6298828-.0100098.4067383-.0791016.6723633-.4726563.5932617-.8789063-.0795898-.4072266-.4731445-.6796875-.8793945-.59375-9.0139179 1.751709-15.243166 1.7631836-22.8909912.0465088 3.2978506-11.7012939-2.967041-23.4835205-3.2672119-24.0357666-.1977539-.3652344-.6518555-.4990234-1.0166016-.3017578-.3642567.1972655-.4990224.6523437-.3017567 1.0166015.078125.1445313 7.7753897 14.6230469 1.640625 26.8085957-4.9282227 9.7880859-7.5302735 19.3798827-5.2758789 36.9296874.0483398.3779297.3710938.6542969.7426758.6542969.4586115 0 .8021064-.4017029.7446289-.8457031-1.8255615-14.2139893-.4986572-22.8505859 2.7803955-30.9255371 8.8857412-.2738037 13.6760244 1.5273437 15.4886465 5.8464355z"/><path d="m65.6463928 65.1040344c.3591766.2022247.8174133.077652 1.0214844-.2841797.3694534-.5960464 2.6315765-4.6585999 2.6889648-4.7607422.2041016-.3613281.0766602-.8183594-.2841797-1.0224609-.3588867-.2011719-.8173828-.0761719-1.0214844.2841797l-.43396.7684326-2.8508301-1.5561523.0953369-.1732178c.2013931-.3657913.0632095-.8216705-.2954102-1.0185547l-10.820797-5.9570313c-.3593521-.1963806-.8163643-.072422-1.019043.2958984l-2.1762695 3.9541016c-.199707.3623047-.0673828.8183594.2954102 1.0185547l10.8203125 5.9560547c.3672409.2000275.8208389.0651093 1.019043-.2958984l.1427002-.2592773 2.8129845 1.534668-.2784424.4931641c-.2041014.361328-.07666.8183593.2841798 1.0224608zm-13.4204063-9.4033203 1.453125-2.640625 3.2979736 1.8154297-.4610596.8378906c-.199707.3623047-.0673828.8183594.2954102 1.0185547.3696327.2013321.8214569.0625725 1.019043-.2958984l.4606934-.8371582 1.100708.605957-.4041748.8220215c-.1831055.3720703-.0297852.8212891.3417969 1.0039063.3662262.1814308.8191681.0332108 1.0039063-.3417969l.3736572-.7601318 2.4788818 1.364624-1.4536133 2.6396484zm11.3253174 5.0390625.4915733-.8928223 2.8365479 1.548584-.5007324.8864746z"/><path d="m50.5795021 52.8286438c.3632813.1972656.8198242.0683594 1.019043-.2958984.199707-.3623047.0673828-.8183594-.2954102-1.0185547l-2.0522461-1.1298828c-.3599129-.1966858-.8167725-.0716858-1.019043.2958984l-.2515869.4567871-3.8460693-2.1169434c-.3618164-.1972656-.8183594-.0673828-1.019043.2958984-.199707.3623047-.0673828.8183594.2954102 1.0185547l3.8461914 2.1169434-.137207.2492676c-.199707.3623047-.0673828.8183594.2954102 1.0185547l2.0522461 1.1298828c.3695984.201313.8215103.0624809 1.019043-.2958984.199707-.3623047.0673828-.8183594-.2954102-1.0185547l-1.3955078-.7675781.3891602-.7070313z"/></g></svg>