<svg id="Icon" viewBox="0 0 64 64" xmlns="http://www.w3.org/2000/svg"><path d="m9.92 48.13h4.71l.85 3.08a2.13 2.13 0 0 0 1.76 1.7 7.33 7.33 0 0 0 1.76 5.09c1.65 1.88 3.85 2.26 6.86 2.26h2.29 1a23.37 23.37 0 0 0 8-1.28 18.76 18.76 0 0 0 4.2-2.14c4.74-3.41 4.27-11.4 3.68-21.53v-.16c-.35-6-.74-12.87 0-19.26.26-2.42.77-4.09 1.51-5a2.73 2.73 0 0 1 2.46.11c1.06.68 1.18 3.7 1.25 5.32.31 7.25.5 14.7.58 22.16a3.32 3.32 0 0 0 3.33 3.26 3.28 3.28 0 0 0 2.32-1 3.34 3.34 0 0 0 .94-2.34c-.09-7.65-.29-15.17-.6-22.37-.13-3-.34-8-4.25-10.57-3.13-2-8.24-2.2-11 1.06-2.41 2.81-2.89 6.91-3.07 8.53-.78 7.09-.33 14.54 0 20.6s.83 14.44-1 15.73a13.69 13.69 0 0 1 -2.64 1.31 18 18 0 0 1 -6.08.88 31.79 31.79 0 0 1 -4.92 0 2.73 2.73 0 0 1 -.06-.63 2.16 2.16 0 0 0 1.78-1.71l.84-3.08h4.72a3.32 3.32 0 0 0 3.31-3.33v-37.75a3.32 3.32 0 0 0 -3.31-3.32h-21.22a3.33 3.33 0 0 0 -3.33 3.32v37.73a3.33 3.33 0 0 0 3.33 3.33zm19 7.45a19.6 19.6 0 0 0 6.7-1 15.33 15.33 0 0 0 3.06-1.58c2.51-1.81 2.35-7.81 1.79-17.56-.35-5.91-.79-13.26 0-20.24.16-1.38.59-5 2.6-7.39s6.05-2.22 8.44-.68c3 2 3.21 6.18 3.33 9 .32 7.17.52 14.67.6 22.3a1.3 1.3 0 0 1 -2.59 0c-.08-7.48-.27-14.95-.58-22.22-.1-2.4-.24-5.68-2.17-6.92-1.42-.92-4-1-5.08.19-1.38 1.61-1.79 4.23-2 6.05-.73 6.56-.33 13.48 0 19.59v.17c.55 9.51 1 17-2.86 19.79a17.19 17.19 0 0 1 -3.69 1.92 22.13 22.13 0 0 1 -7.47 1.17h-.94c-.8 0-1.54 0-2.22 0-2.93 0-4.34-.41-5.36-1.58a5.36 5.36 0 0 1 -1.24-3.59h2.58a3 3 0 0 0 .59 2c.59.65 1.81.76 6.47.58zm-5.24-4.8s0 0 0 .08a1.19 1.19 0 0 1 -.3.12 2 2 0 0 1 -.48.06h-4.63a2.34 2.34 0 0 1 -.47 0 1.29 1.29 0 0 1 -.35-.13s0 0 0-.08l-.73-2.65h7.66zm8.83-6a1.33 1.33 0 0 1 -1.31 1.33h-21.28a1.34 1.34 0 0 1 -1.33-1.31v-30h23.88zm-23.92-37.71a1.33 1.33 0 0 1 1.33-1.32h21.24a1.32 1.32 0 0 1 1.31 1.32v5.69h-23.88z"/><path d="m14.91 20.85h10.77a1 1 0 0 0 0-2h-10.77a1 1 0 0 0 0 2z"/><path d="m14.91 29.47h10.77a1 1 0 0 0 0-2h-10.77a1 1 0 1 0 0 2z"/><path d="m17.14 23.16a1 1 0 0 0 0 2h5.55a1 1 0 0 0 0-2z"/><path d="m24.34 32.88c-1.21-.82-2.93-.49-4.42.79-1.49-1.28-3.21-1.61-4.42-.79a3.11 3.11 0 0 0 -1.22 2.85 6.69 6.69 0 0 0 1.2 3.32 5.57 5.57 0 0 0 4.23 2.72h.21c1.51.11 3.24-.95 4.44-2.71 1.64-2.38 1.64-5.06-.02-6.18zm-1.64 5a3.53 3.53 0 0 1 -2.7 1.88h-.21a3.57 3.57 0 0 1 -2.68-1.83 4.86 4.86 0 0 1 -.85-2.3 1.25 1.25 0 0 1 .34-1.1.74.74 0 0 1 .38-.1 3.31 3.31 0 0 1 2.16 1.3 1 1 0 0 0 .76.34 1 1 0 0 0 .75-.34c1-1.1 2.09-1.51 2.55-1.2s.56 1.83-.5 3.4z"/></svg>