<svg id="Layer_1" enable-background="new 0 0 53 53" height="512" viewBox="0 0 53 53" width="512" xmlns="http://www.w3.org/2000/svg"><g id="_x32_2"><path d="m2.6308019 19.9565201c-.2729492.4799805-.1054688 1.090332.3745117 1.363287.3079834.1752262 6.2762451 3.5609074 10.4921265 5.3585148l-2.7215576 6.7161865-.5930176 1.0285645c-.4111938-.2088013-.822998-.4147949-1.2322388-.6330566-.4887695-.2617188-1.0932617-.0761719-1.3530273.4116211-.2597656.4873047-.0756836 1.0932617.4116211 1.3530273.3897095.2078857.7821045.4033813 1.173645.6029663l-.461731.8008423c-.2758789.4785156-.1118164 1.0898438.3666992 1.3657227.4780684.2761536 1.0900879.1111183 1.3657227-.3666992l.5278931-.9155884c1.125.5333862 2.2554321 1.0346069 3.3913574 1.4989014l-.5315552.9220581c-.2758789.4785156-.1118164 1.0898438.3666992 1.3657227.4780684.2761536 1.0900879.1111183 1.3657227-.3666992l.6824341-1.1837158c1.1751709.4385986 2.354126.8442993 3.5360718 1.2077637l-.454834.7889404c-.2758789.4785156-.1118164 1.0898438.3666992 1.3657227.4780693.2761536 1.0900879.1111183 1.3657227-.3666992l.7010498-1.2160034c.6989746.1894531 1.3984375.3672485 2.0982666.5299683.5376148.1240654 1.0753021-.208992 1.2006836-.7475586.125-.5380859-.2094727-1.0756836-.7475586-1.2006836-.5050049-.1174316-1.0098267-.24823-1.5145264-.380127l.3514404-.6096191c.2758789-.4785156.1118164-1.0898438-.3666992-1.3657227-.4794922-.2763672-1.090332-.1118164-1.3657227.3666992l-.6066284 1.0522461c-1.1860352-.3547974-2.3693848-.7515869-3.5493774-1.1847534l.392334-.680481c.2758789-.4785156.1118164-1.0898438-.3666992-1.3657227-.4790039-.2768555-1.0898438-.1113281-1.3657227.3666992l-.5485229.951416c-1.1380615-.4595337-2.2711792-.9552612-3.3986206-1.4864502l.5594482-.9703369c.0093994-.0162964.0088501-.034668.0172119-.0512695.0130005-.0255127.0323486-.0457153.043335-.0727539l2.7595215-6.8098755c.1988525.0667114.3873291.1252441.5653076.1754761.2900391.1303101 3.6714478 1.7196655 4.6820068 5.4844971.1429443.5316849.6902523.8507729 1.2250977.706543.5332031-.1430664.8496094-.6918945.706543-1.2250977-.3018188-1.1242065-.772583-2.0831299-1.3145752-2.9039307 2.5385132 1.2001343 4.9561768 2.5837402 6.0860596 3.444458 1.4655151 1.1166992 3.1266479 1.6804199 4.1873169 1.9489746-.3625488 1.8739014-.6513062 5.6543579 2.5280151 6.9260254.5200195.2067566 1.0964546-.0501938 1.2998047-.5576172.2050781-.5126953-.0444336-1.0947266-.5576172-1.2998047-2.4185181-.9671021-1.1873779-5.2554932-1.1091309-5.5182495.3831787-.9834595 6.0888062-15.6734009 6.6027832-18.7610397.5761719-3.4565487 2.206543-9.8769588 2.7260742-10.7338924.0688477-.1142578.125-.3125.144043-.4448242l-.9892578-.1450195-.1445313-.0092773-.7211914-.4370117c-.8457031 1.3955078-2.5537109 8.8369141-2.987793 11.4414063-.3818359 2.2919912-4.3569336 12.8408194-6.206543 17.6245117-.8623047-.2094727-2.3129883-.675293-3.5600586-1.625-2.3564453-1.7954102-8.3452148-4.831543-11.9755859-5.815918-.131958-.0357666-.2858887-.0881958-.4329224-.135437l.9893799-2.4415894c.1636353.02948.3282471.0472412.4923706.0472412.7260742 0 1.4384766-.2851563 1.972168-.8227539l1.0922852-1.0996094c.3222656-.3242188.5727539-.7036133.7436523-1.1259766.0423756-.1045246 3.8593578-9.5196781 3.6162109-8.9199209.5324535-1.3125858-.0906143-2.8244123-1.4238281-3.3652344l-.2531736-.1026633.2790527-.6859131c.4389648-1.0830078 1.3828125-1.8759766 2.5244141-2.1210938.5400391-.1157227.8837891-.6474609.7675781-1.1875002-.1152344-.5395508-.644043-.8833008-1.1875-.7675781-1.7900391.3842773-3.2695313 1.6269534-3.9575195 3.3237307l-.2793579.6870117-.25531-.1035156c-1.3185139-.534451-2.8265533.0953674-3.3652344 1.4243164-.0412273.1016769-3.6757116 9.065465-3.6166992 8.9199209-.1713867.4243164-.2553711.8706055-.25 1.3261719l.0185547 1.5493164c.0108643.9277954.4818726 1.765564 1.2303467 2.2692261l-1.0059814 2.4825439c-4.0950317-1.7507935-10.1795044-5.2017822-10.2541504-5.2439575-.478516-.2729492-1.0898441-.1049805-1.3632816.375zm17.0947268-10.9272452c.1203022-.2967453.458786-.4439945.7602539-.3217773.1814899.0735788 2.5096359 1.0174475 2.3618164.9575195.3016834.122304.442091.4639702.3217773.7607422l-.793396 1.9568481c-.1028748-.0417099-3.6652374-1.4860373-3.4439087-1.3963013zm-3.6162109 8.919921 2.0712891-5.109374c.7471809.3029823 3.5916634 1.4564238 3.4438477 1.3964844l-2.0717773 5.109374c-.0708008.175293-.1748047.3325195-.3085938.4677734l-1.0922852 1.0996094c-.2226563.2236328-.5556641.2929688-.8496094.1738281-.040535-.0164833-.5925255-.2402439-.7900391-.3203125-.2929688-.1186523-.4848633-.3999023-.4882813-.7167969l-.0185547-1.5498047c-.0024413-.1889648.0327149-.375.104004-.5507812z"/><path d="m50.4921303 4.6220484c.0693359-.5478516-.3183594-1.0483401-.8662109-1.1181643-.5483398-.0708008-1.0483398.3183594-1.1181641.8662112-.2060547 1.6235352-.4584961 3.6225586-.6313477 5.0419922-.347168 2.8476563-.0195313 8.2202139-.0063477 8.4262686.0048828.1206055.46875 12.1083984-1.347168 17.1230469-1.9589844 5.4111328-1.5688477 9.6049805-1.5512695 9.78125.0039063.0371094.0097656.0742188.0175781.1108398.0014648.0083008.1508789.8408203-.3671875 1.5371094-.4819336.6474609-1.4555664 1.0473633-2.8154297 1.1552734-2.7397308.2191811-5.3973274.8402023-9.7226563.3096313.3543091-.1867676.6685791-.3999023.9111328-.6426392.3901367-.3911133.3901367-1.0239258-.0004883-1.4145508-.390625-.3896484-1.0239258-.3901367-1.4145508.0004883-.585144.5861206-2.6702271 1.0755615-3.9995117 1.2445679-7.8827515.1782837-15.8085938-1.881897-23.6054688-6.0917358-.4868164-.2631836-1.0927734-.0810547-1.3549805.4047852s-.0810547 1.0927734.4047852 1.3549805c8.0771484 4.3608398 16.3193359 6.4887695 24.5112305 6.3349609 3.2285156.7871094 5.7285156 1.0292969 7.8305664 1.0292969 1.7753906 0 3.2675781-.1728516 4.6733398-.3359375.6552734-.0756836 1.2895508-.1494141 1.925293-.199707 1.9794922-.1577148 3.4135742-.815918 4.2612305-1.9555664.9614258-1.2919922.796875-2.7075195.7324219-3.0761719-.03125-.4111328-.2568359-4.1660156 1.4448242-8.8662109 1.9492188-5.3828125 1.4853516-17.3769531 1.4633789-17.90625-.003418-.0537109-.3300781-5.416503-.0053711-8.081542.1728517-1.4165041.4243166-3.4116213.6303713-5.0322267z"/></g></svg>