<?xml version="1.0" encoding="UTF-8"?>
<svg xmlns="http://www.w3.org/2000/svg" viewBox="0 0 512 512" width="512" height="512"><g id="Layer_17" data-name="Layer 17"><path d="M376,248a127.045,127.045,0,0,0-64,17.32V48A40.047,40.047,0,0,0,272,8H48A40.047,40.047,0,0,0,8,48V464a40.047,40.047,0,0,0,40,40H272a39.728,39.728,0,0,0,34.8-20.48A127.942,127.942,0,1,0,376,248ZM272,488H48a24.026,24.026,0,0,1-24-24V48A24.027,24.027,0,0,1,48,24H272a24.027,24.027,0,0,1,24,24v228.24a128.773,128.773,0,0,0-32.959,39.693A31.86,31.86,0,0,0,248,312H200a32,32,0,0,0,0,64h48a127.936,127.936,0,0,0,2.362,24.177c-.788-.058-1.566-.177-2.362-.177H200a32,32,0,0,0,0,64h48a31.88,31.88,0,0,0,25.088-12.211A128.971,128.971,0,0,0,293.8,473.98,23.855,23.855,0,0,1,272,488Zm-72-40a16,16,0,0,1,0-32h16v32Zm32-32h16a15.825,15.825,0,0,1,7.185,1.893,127.472,127.472,0,0,0,8.1,18.676A15.913,15.913,0,0,1,248,448H232Zm16-56H232V328h16a15.932,15.932,0,0,1,8.494,2.537,126.763,126.763,0,0,0-7.368,29.364C248.749,359.926,248.381,360,248,360Zm-48,0a16,16,0,0,1,0-32h16v32ZM376,488A112,112,0,1,1,488,376,112.126,112.126,0,0,1,376,488Z"/><path d="M200,112h48a32,32,0,0,0,0-64H200a32,32,0,1,0,0,64Zm64-32a16.015,16.015,0,0,1-16,16H232V64h16A16.016,16.016,0,0,1,264,80ZM200,64h16V96H200a16,16,0,1,1,0-32Z"/><path d="M120,48H72a32,32,0,1,0,0,64h48a32,32,0,0,0,0-64ZM56,80A16.016,16.016,0,0,1,72,64H88V96H72A16.015,16.015,0,0,1,56,80Zm64,16H104V64h16a16,16,0,0,1,0,32Z"/><path d="M200,200h48a32,32,0,0,0,0-64H200a32,32,0,0,0,0,64Zm64-32a16.015,16.015,0,0,1-16,16H232V152h16A16.016,16.016,0,0,1,264,168Zm-64-16h16v32H200a16,16,0,0,1,0-32Z"/><path d="M120,136H72a32,32,0,0,0,0,64h48a32,32,0,0,0,0-64ZM56,168a16.016,16.016,0,0,1,16-16H88v32H72A16.015,16.015,0,0,1,56,168Zm64,16H104V152h16a16,16,0,0,1,0,32Z"/><path d="M200,288h48a32,32,0,0,0,0-64H200a32,32,0,0,0,0,64Zm64-32a16.018,16.018,0,0,1-16,16H232V240h16A16.016,16.016,0,0,1,264,256Zm-64-16h16v32H200a16,16,0,0,1,0-32Z"/><path d="M120,224H72a32,32,0,0,0,0,64h48a32,32,0,0,0,0-64ZM56,256a16.016,16.016,0,0,1,16-16H88v32H72A16.018,16.018,0,0,1,56,256Zm64,16H104V240h16a16,16,0,0,1,0,32Z"/><path d="M120,312H72a32,32,0,0,0,0,64h48a32,32,0,0,0,0-64ZM56,344a16.019,16.019,0,0,1,16-16H88v32H72A16.018,16.018,0,0,1,56,344Zm64,16H104V328h16a16,16,0,0,1,0,32Z"/><path d="M120,400H72a32,32,0,0,0,0,64h48a32,32,0,1,0,0-64ZM56,432a16.019,16.019,0,0,1,16-16H88v32H72A16.018,16.018,0,0,1,56,432Zm64,16H104V416h16a16,16,0,1,1,0,32Z"/><path d="M376,280a96,96,0,1,0,96,96A96.108,96.108,0,0,0,376,280Zm0,176a80,80,0,1,1,80-80A80.091,80.091,0,0,1,376,456Z"/><path d="M384,328H368a24.027,24.027,0,0,0-24,24v48a24.026,24.026,0,0,0,24,24h16a24.026,24.026,0,0,0,24-24V376a8,8,0,0,0-8-8H376v16h16v16a8.008,8.008,0,0,1-8,8H368a8.008,8.008,0,0,1-8-8V352a8.008,8.008,0,0,1,8-8h16a8.008,8.008,0,0,1,8,8v8h16v-8A24.027,24.027,0,0,0,384,328Z"/></g></svg>
