<svg id="Layer_1" enable-background="new 0 0 512 512" viewBox="0 0 512 512" xmlns="http://www.w3.org/2000/svg"><path d="m412.78 278.07h-143.67l12.45-87.76h18.7c3.31 0 6-2.69 6-6v-123.18c0-3.31-2.69-6-6-6h-88.52c-3.31 0-6 2.69-6 6v123.18c0 3.31 2.69 6 6 6h18.7l12.45 87.76h-143.67c-3.31 0-6 2.69-6 6v87.34c0 3.31 2.69 6 6 6h313.57c3.31 0 6-2.69 6-6v-87.34c-.01-3.31-2.69-6-6.01-6zm-195.04-210.94h76.52v111.18h-76.52zm24.82 123.18h26.87l-12.45 87.76h-1.97zm164.22 175.1h-301.56v-75.34h142.07l-9.07 23.73-26.98-8.09c-1.58-.47-3.21-.26-4.55.47l-30.12 14.56-32.9-8.1c-3.21-.79-6.45 1.17-7.24 4.38s1.17 6.45 4.38 7.24l34.99 8.61c1.31.32 2.73.21 4.03-.42l30.2-14.6 29.93 8.98c3.02 1 6.33-.56 7.47-3.56l9.84-25.76 12.05 11.79 9.06 22.21c1.24 3.07 4.74 4.55 7.8 3.3.52-.21.99-.49 1.42-.81l20.53-14.48 16.63 10.49c1.85 1.16 4.09 1.19 5.9.27l22.55-10.36c3-1.37 4.33-4.92 2.95-7.92-1.37-3-4.92-4.33-7.92-2.95l-19.84 9.12-17.01-10.73c-2.01-1.41-4.77-1.49-6.89 0l-17.86 12.59-6.58-16.14c-.3-.84-.78-1.63-1.47-2.3l-11.77-11.51h139.95v75.33zm-191.63-20.5c0 1.82-1.48 3.3-3.3 3.3h-.23c-1.82 0-3.3-1.48-3.3-3.3s1.48-3.3 3.3-3.3h.23c1.82 0 3.3 1.48 3.3 3.3zm-94.91-6.64h-.23c-1.82 0-3.3-1.48-3.3-3.3s1.48-3.3 3.3-3.3h.23c1.82 0 3.3 1.48 3.3 3.3s-1.47 3.3-3.3 3.3zm-.68-31.78c0-1.82 1.48-3.3 3.3-3.3h.23c1.82 0 3.3 1.48 3.3 3.3s-1.48 3.3-3.3 3.3h-.23c-1.82.01-3.3-1.47-3.3-3.3zm24.2-5.69c0-1.82 1.48-3.3 3.3-3.3h.23c1.82 0 3.3 1.48 3.3 3.3s-1.48 3.3-3.3 3.3h-.23c-1.82 0-3.3-1.48-3.3-3.3zm13.96 45.56c0 1.82-1.48 3.3-3.3 3.3h-.23c-1.82 0-3.3-1.48-3.3-3.3s1.48-3.3 3.3-3.3h.23c1.82 0 3.3 1.48 3.3 3.3zm29.9 2.14c0 1.82-1.48 3.3-3.3 3.3h-.23c-1.82 0-3.3-1.48-3.3-3.3s1.48-3.3 3.3-3.3h.23c1.82 0 3.3 1.48 3.3 3.3zm4.67-42.93c0-1.82 1.48-3.3 3.3-3.3h.23c1.82 0 3.3 1.48 3.3 3.3s-1.48 3.3-3.3 3.3h-.23c-1.82 0-3.3-1.48-3.3-3.3zm-64.61 46.49c0 1.82-1.48 3.3-3.3 3.3h-.23c-1.82 0-3.3-1.48-3.3-3.3s1.48-3.3 3.3-3.3h.23c1.82 0 3.3 1.48 3.3 3.3zm108.61 1.94c0 1.82-1.48 3.3-3.3 3.3h-.23c-1.82 0-3.3-1.48-3.3-3.3s1.48-3.3 3.3-3.3h.23c1.82 0 3.3 1.47 3.3 3.3zm6.41-20.65c0 1.82-1.48 3.3-3.3 3.3h-.23c-1.82 0-3.3-1.48-3.3-3.3s1.48-3.3 3.3-3.3h.23c1.82 0 3.3 1.48 3.3 3.3zm14.27-7.94c0 1.82-1.48 3.3-3.3 3.3h-.23c-1.82 0-3.3-1.48-3.3-3.3s1.48-3.3 3.3-3.3h.23c1.82 0 3.3 1.48 3.3 3.3zm36.02 33.77c0 1.82-1.48 3.3-3.3 3.3h-.23c-1.82 0-3.3-1.48-3.3-3.3s1.48-3.3 3.3-3.3h.23c1.82 0 3.3 1.48 3.3 3.3zm-23.49-9.97c0 1.82-1.48 3.3-3.3 3.3h-.23c-1.82 0-3.3-1.48-3.3-3.3s1.48-3.3 3.3-3.3h.23c1.82 0 3.3 1.48 3.3 3.3zm39.87-14.24c0 1.82-1.48 3.3-3.3 3.3h-.23c-1.82 0-3.3-1.48-3.3-3.3s1.48-3.3 3.3-3.3h.23c1.82 0 3.3 1.48 3.3 3.3zm-22.5-32.75c0-1.82 1.48-3.3 3.3-3.3h.23c1.82 0 3.3 1.48 3.3 3.3s-1.48 3.3-3.3 3.3h-.23c-1.82 0-3.3-1.47-3.3-3.3zm37.73.71c0-1.82 1.48-3.3 3.3-3.3h.23c1.82 0 3.3 1.48 3.3 3.3s-1.48 3.3-3.3 3.3h-.23c-1.82.01-3.3-1.47-3.3-3.3zm-.99 49.84c0 1.82-1.48 3.3-3.3 3.3h-.23c-1.82 0-3.3-1.48-3.3-3.3s1.48-3.3 3.3-3.3h.23c1.82 0 3.3 1.48 3.3 3.3zm24.91-12.1c0 1.82-1.48 3.3-3.3 3.3h-.23c-1.82 0-3.3-1.48-3.3-3.3s1.48-3.3 3.3-3.3h.23c1.83 0 3.3 1.48 3.3 3.3zm11.68 14.95c0-1.82 1.48-3.3 3.3-3.3h.23c1.82 0 3.3 1.48 3.3 3.3s-1.48 3.3-3.3 3.3h-.23c-1.82 0-3.3-1.48-3.3-3.3zm2.86-33.59c0-1.82 1.48-3.3 3.3-3.3h.23c1.82 0 3.3 1.48 3.3 3.3s-1.48 3.3-3.3 3.3h-.23c-1.82 0-3.3-1.48-3.3-3.3zm24.4 5.32h.23c1.82 0 3.3 1.48 3.3 3.3s-1.48 3.3-3.3 3.3h-.23c-1.82 0-3.3-1.48-3.3-3.3s1.48-3.3 3.3-3.3zm4.06 19.47h.23c1.82 0 3.3 1.48 3.3 3.3s-1.48 3.3-3.3 3.3h-.23c-1.82 0-3.3-1.48-3.3-3.3s1.48-3.3 3.3-3.3zm-12.32-44.03c0-1.82 1.48-3.3 3.3-3.3h.23c1.82 0 3.3 1.48 3.3 3.3s-1.48 3.3-3.3 3.3h-.23c-1.82 0-3.3-1.48-3.3-3.3zm-123.2-287.79c-132.89 0-241 108.11-241 241s108.11 241 241 241 241-108.11 241-241-108.11-241-241-241zm0 470c-126.27 0-229-102.73-229-229s102.73-229 229-229 229 102.73 229 229-102.73 229-229 229z"/></svg>