<svg id="Layer_1" enable-background="new 0 0 1024 1024" viewBox="0 0 1024 1024" xmlns="http://www.w3.org/2000/svg"><g><path d="m573.92 519.78c-2.93 0-5.72-1.29-7.62-3.52l-122.84-144.44c-7.1-8.35-8.3-20.4-2.97-29.98l24.96-44.93c4.66-8.39 13.52-13.6 23.12-13.6h170.72c9.6 0 18.46 5.21 23.12 13.6l24.96 44.93c5.32 9.58 4.13 21.63-2.97 29.98l-122.86 144.44c-1.9 2.23-4.68 3.52-7.62 3.52zm-85.35-216.48c-2.34 0-4.5 1.27-5.64 3.32l-24.96 44.93c-1.3 2.34-1.01 5.28.73 7.31l115.23 135.48 115.24-135.48c1.73-2.04 2.02-4.98.73-7.31l-24.96-44.93c-1.14-2.05-3.3-3.32-5.64-3.32z"/><path d="m628.92 366.67h-110c-3.28 0-6.35-1.61-8.22-4.3s-2.3-6.13-1.15-9.2l23.66-63.36c1.46-3.91 5.2-6.5 9.37-6.5h62.67c4.17 0 7.91 2.59 9.37 6.5l23.67 63.36c1.15 3.07.72 6.51-1.15 9.2s-4.94 4.3-8.22 4.3zm-95.59-20h81.18l-16.19-43.36h-48.79z"/><path d="m573.92 519.78c-4.22 0-7.99-2.65-9.41-6.62l-55-153.12c-1.1-3.06-.64-6.47 1.23-9.13s4.92-4.25 8.18-4.25h110c3.25 0 6.31 1.58 8.18 4.25 1.87 2.66 2.33 6.07 1.23 9.13l-55 153.12c-1.42 3.98-5.19 6.62-9.41 6.62zm-40.78-153.11 40.78 113.54 40.78-113.54z"/><path d="m765.2 645.8h-382.55c-2.87 0-5.6-1.23-7.5-3.39s-2.78-5.02-2.42-7.87c5.46-43.22 24.32-82.79 54.54-114.42 30.13-31.53 68.63-52.16 111.36-59.66 3.49-.61 7.05.67 9.34 3.37l25.95 30.51 25.94-30.5c2.3-2.7 5.85-3.98 9.35-3.37 42.73 7.5 81.24 28.13 111.36 59.66 30.22 31.63 49.08 71.19 54.54 114.42.36 2.85-.52 5.71-2.42 7.87-1.89 2.15-4.62 3.38-7.49 3.38zm-370.84-20h359.13c-13.75-71.66-70.44-129.6-142.16-144.56l-29.78 35.02c-1.9 2.23-4.68 3.52-7.62 3.52s-5.72-1.29-7.62-3.52l-29.79-35.02c-71.72 14.95-128.41 72.9-142.16 144.56z"/><path d="m702.7 645.8h-257.55c-2.99 0-5.82-1.33-7.71-3.64s-2.67-5.34-2.1-8.27c12.83-66.14 71.11-114.15 138.59-114.15s125.77 48.01 138.6 114.15c.57 2.93-.2 5.96-2.1 8.27s-4.75 3.64-7.73 3.64zm-244.79-20h232.03c-15.25-50.53-62.23-86.05-116.02-86.05-53.78 0-100.76 35.52-116.01 86.05z"/><path d="m447.15 346.67h253.54v20h-253.54z"/><path d="m746.64 346.67h37.43v20h-37.43z"/><path d="m503.34 164.38h20v37.43h-20z" transform="matrix(.954 -.298 .298 .954 -31.25 161.541)"/><path d="m615.79 173.1h37.43v20h-37.43z" transform="matrix(.298 -.954 .954 .298 270.387 734.042)"/><path d="m713.24 241.37h37.43v20h-37.43z" transform="matrix(.785 -.62 .62 .785 1.761 507.803)"/><path d="m363.78 346.67h37.43v20h-37.43z"/><path d="m405.89 232.65h20v37.43h-20z" transform="matrix(.62 -.785 .785 .62 -39.15 421.916)"/><path d="m773.49 908.42h-399.13c-36.14 0-65.54-29.4-65.54-65.54v-207.08c0-5.52 4.48-10 10-10h510.21c5.52 0 10 4.48 10 10v207.08c0 36.14-29.4 65.54-65.54 65.54zm-444.67-262.62v197.08c0 25.11 20.43 45.54 45.54 45.54h399.13c25.11 0 45.54-20.43 45.54-45.54v-197.08z"/><path d="m620.21 908.42h-92.57c-5.52 0-10-4.48-10-10v-262.62c0-5.52 4.48-10 10-10h92.57c5.52 0 10 4.48 10 10v262.62c0 5.53-4.48 10-10 10zm-82.57-20h72.57v-242.62h-72.57z"/><path d="m318.36 436.97h-153.25c-5.52 0-10-4.48-10-10v-92.57c0-5.52 4.48-10 10-10h153.25c5.52 0 10 4.48 10 10v92.57c0 5.53-4.48 10-10 10zm-143.25-20h133.25v-72.57h-133.25z"/><path d="m318.36 645.8h-95.58c-37.31 0-67.67-30.36-67.67-67.67v-394.88c0-37.31 30.36-67.67 67.67-67.67h95.58c5.52 0 10 4.48 10 10v510.22c0 5.52-4.48 10-10 10zm-95.58-510.22c-26.29 0-47.67 21.39-47.67 47.67v394.88c0 26.29 21.39 47.67 47.67 47.67h85.58v-490.22z"/><path d="m774.45 460.32h86.5v20h-86.5z"/><path d="m881.95 460.32h22v20h-22z"/><path d="m170.89 730.07h20v121.69h-20z"/><path d="m120.05 780.91h121.69v20h-121.69z"/><path d="m839.2 203.61c-21.16 0-38.38-17.22-38.38-38.38s17.22-38.38 38.38-38.38 38.38 17.22 38.38 38.38c0 21.17-17.21 38.38-38.38 38.38zm0-56.76c-10.13 0-18.38 8.25-18.38 18.38s8.25 18.38 18.38 18.38 18.38-8.25 18.38-18.38-8.24-18.38-18.38-18.38z"/></g></svg>