<svg id="Image" viewBox="0 0 64 64" xmlns="http://www.w3.org/2000/svg"><g fill="none" stroke="#464747" stroke-linecap="round" stroke-linejoin="round" stroke-width="2"><path d="m62 47s-7-2-20-2c-.452 0-.865.013-1.243.035a2.657 2.657 0 0 0 -2.343 3.547 10.123 10.123 0 0 1 .586 3.418c0 1.169-.386 7-8 7-2.767 0-8-2.3-8-11a2.651 2.651 0 0 0 -2.171-2.608 26.553 26.553 0 0 0 -4.829-.392 58.492 58.492 0 0 0 -14 2"/><path d="m18 18v5.5a1.5 1.5 0 0 1 -1.5 1.5h-3a1.5 1.5 0 0 1 -1.5-1.5v-5.5h-5.5a1.5 1.5 0 0 1 -1.5-1.5v-3a1.5 1.5 0 0 1 1.5-1.5h5.5v-5.5a1.5 1.5 0 0 1 1.5-1.5h3a1.5 1.5 0 0 1 1.5 1.5v5.5h5.5a1.5 1.5 0 0 1 1.5 1.5v3a1.5 1.5 0 0 1 -1.5 1.5z"/><path d="m42.47 18.546s2.036-.894 4.719 1.482c0 0-6.037.972-7.572 3.592-.9 1.73-1.77 3.56-2.56 5.46a13.713 13.713 0 0 1 5.05-.13 13.071 13.071 0 0 0 -7.8 8.25.929.929 0 0 0 -.04.13l.04-.13a.929.929 0 0 0 -.04.13 40.033 40.033 0 0 0 -1.267 9.67c0 2 2 2 2 5s-3 3-4 3-4-1-4-7a38.106 38.106 0 0 1 3.37-15.11.786.786 0 0 1 .04-.09l.013-.048c-.44 1.175 2.285-5.505.863-10.628 0 0 1.713.442 2.813 3.645 1.08-1.75 2.22-3.4 3.36-4.93a.124.124 0 0 0 .02-.03l-.016.03s1.74-3.048 1.564-9.784a7.43 7.43 0 0 1 1.889 5.517v-.01c4.144-4.732 7.684-7.562 8.084-7.562a109.5 109.5 0 0 0 -6.53 9.55"/></g></svg>